<svg xmlns="http://www.w3.org/2000/svg" version="1.1" xmlns:xlink="http://www.w3.org/1999/xlink" xmlns:svgjs="http://svgjs.com/svgjs" width="1440" height="78235.5" preserveAspectRatio="none" viewBox="0 0 1440 78235.5"><g mask="url(&quot;#SvgjsMask1791&quot;)" fill="none"><rect width="1440" height="78235.5" x="0" y="0" fill="url(#SvgjsLinearGradient1792)"></rect><use xlink:href="#SvgjsSymbol1799" x="0" y="0"></use><use xlink:href="#SvgjsSymbol1799" x="0" y="720"></use><use xlink:href="#SvgjsSymbol1799" x="0" y="1440"></use><use xlink:href="#SvgjsSymbol1799" x="0" y="2160"></use><use xlink:href="#SvgjsSymbol1799" x="0" y="2880"></use><use xlink:href="#SvgjsSymbol1799" x="0" y="3600"></use><use xlink:href="#SvgjsSymbol1799" x="0" y="4320"></use><use xlink:href="#SvgjsSymbol1799" x="0" y="5040"></use><use xlink:href="#SvgjsSymbol1799" x="0" y="5760"></use><use xlink:href="#SvgjsSymbol1799" x="0" y="6480"></use><use xlink:href="#SvgjsSymbol1799" x="0" y="7200"></use><use xlink:href="#SvgjsSymbol1799" x="0" y="7920"></use><use xlink:href="#SvgjsSymbol1799" x="0" y="8640"></use><use xlink:href="#SvgjsSymbol1799" x="0" y="9360"></use><use xlink:href="#SvgjsSymbol1799" x="0" y="10080"></use><use xlink:href="#SvgjsSymbol1799" x="0" y="10800"></use><use xlink:href="#SvgjsSymbol1799" x="0" y="11520"></use><use xlink:href="#SvgjsSymbol1799" x="0" y="12240"></use><use xlink:href="#SvgjsSymbol1799" x="0" y="12960"></use><use xlink:href="#SvgjsSymbol1799" x="0" y="13680"></use><use xlink:href="#SvgjsSymbol1799" x="0" y="14400"></use><use xlink:href="#SvgjsSymbol1799" x="0" y="15120"></use><use xlink:href="#SvgjsSymbol1799" x="0" y="15840"></use><use xlink:href="#SvgjsSymbol1799" x="0" y="16560"></use><use xlink:href="#SvgjsSymbol1799" x="0" y="17280"></use><use xlink:href="#SvgjsSymbol1799" x="0" y="18000"></use><use xlink:href="#SvgjsSymbol1799" x="0" y="18720"></use><use xlink:href="#SvgjsSymbol1799" x="0" y="19440"></use><use xlink:href="#SvgjsSymbol1799" x="0" y="20160"></use><use xlink:href="#SvgjsSymbol1799" x="0" y="20880"></use><use xlink:href="#SvgjsSymbol1799" x="0" y="21600"></use><use xlink:href="#SvgjsSymbol1799" x="0" y="22320"></use><use xlink:href="#SvgjsSymbol1799" x="0" y="23040"></use><use xlink:href="#SvgjsSymbol1799" x="0" y="23760"></use><use xlink:href="#SvgjsSymbol1799" x="0" y="24480"></use><use xlink:href="#SvgjsSymbol1799" x="0" y="25200"></use><use xlink:href="#SvgjsSymbol1799" x="0" y="25920"></use><use xlink:href="#SvgjsSymbol1799" x="0" y="26640"></use><use xlink:href="#SvgjsSymbol1799" x="0" y="27360"></use><use xlink:href="#SvgjsSymbol1799" x="0" y="28080"></use><use xlink:href="#SvgjsSymbol1799" x="0" y="28800"></use><use xlink:href="#SvgjsSymbol1799" x="0" y="29520"></use><use xlink:href="#SvgjsSymbol1799" x="0" y="30240"></use><use xlink:href="#SvgjsSymbol1799" x="0" y="30960"></use><use xlink:href="#SvgjsSymbol1799" x="0" y="31680"></use><use xlink:href="#SvgjsSymbol1799" x="0" y="32400"></use><use xlink:href="#SvgjsSymbol1799" x="0" y="33120"></use><use xlink:href="#SvgjsSymbol1799" x="0" y="33840"></use><use xlink:href="#SvgjsSymbol1799" x="0" y="34560"></use><use xlink:href="#SvgjsSymbol1799" x="0" y="35280"></use><use xlink:href="#SvgjsSymbol1799" x="0" y="36000"></use><use xlink:href="#SvgjsSymbol1799" x="0" y="36720"></use><use xlink:href="#SvgjsSymbol1799" x="0" y="37440"></use><use xlink:href="#SvgjsSymbol1799" x="0" y="38160"></use><use xlink:href="#SvgjsSymbol1799" x="0" y="38880"></use><use xlink:href="#SvgjsSymbol1799" x="0" y="39600"></use><use xlink:href="#SvgjsSymbol1799" x="0" y="40320"></use><use xlink:href="#SvgjsSymbol1799" x="0" y="41040"></use><use xlink:href="#SvgjsSymbol1799" x="0" y="41760"></use><use xlink:href="#SvgjsSymbol1799" x="0" y="42480"></use><use xlink:href="#SvgjsSymbol1799" x="0" y="43200"></use><use xlink:href="#SvgjsSymbol1799" x="0" y="43920"></use><use xlink:href="#SvgjsSymbol1799" x="0" y="44640"></use><use xlink:href="#SvgjsSymbol1799" x="0" y="45360"></use><use xlink:href="#SvgjsSymbol1799" x="0" y="46080"></use><use xlink:href="#SvgjsSymbol1799" x="0" y="46800"></use><use xlink:href="#SvgjsSymbol1799" x="0" y="47520"></use><use xlink:href="#SvgjsSymbol1799" x="0" y="48240"></use><use xlink:href="#SvgjsSymbol1799" x="0" y="48960"></use><use xlink:href="#SvgjsSymbol1799" x="0" y="49680"></use><use xlink:href="#SvgjsSymbol1799" x="0" y="50400"></use><use xlink:href="#SvgjsSymbol1799" x="0" y="51120"></use><use xlink:href="#SvgjsSymbol1799" x="0" y="51840"></use><use xlink:href="#SvgjsSymbol1799" x="0" y="52560"></use><use xlink:href="#SvgjsSymbol1799" x="0" y="53280"></use><use xlink:href="#SvgjsSymbol1799" x="0" y="54000"></use><use xlink:href="#SvgjsSymbol1799" x="0" y="54720"></use><use xlink:href="#SvgjsSymbol1799" x="0" y="55440"></use><use xlink:href="#SvgjsSymbol1799" x="0" y="56160"></use><use xlink:href="#SvgjsSymbol1799" x="0" y="56880"></use><use xlink:href="#SvgjsSymbol1799" x="0" y="57600"></use><use xlink:href="#SvgjsSymbol1799" x="0" y="58320"></use><use xlink:href="#SvgjsSymbol1799" x="0" y="59040"></use><use xlink:href="#SvgjsSymbol1799" x="0" y="59760"></use><use xlink:href="#SvgjsSymbol1799" x="0" y="60480"></use><use xlink:href="#SvgjsSymbol1799" x="0" y="61200"></use><use xlink:href="#SvgjsSymbol1799" x="0" y="61920"></use><use xlink:href="#SvgjsSymbol1799" x="0" y="62640"></use><use xlink:href="#SvgjsSymbol1799" x="0" y="63360"></use><use xlink:href="#SvgjsSymbol1799" x="0" y="64080"></use><use xlink:href="#SvgjsSymbol1799" x="0" y="64800"></use><use xlink:href="#SvgjsSymbol1799" x="0" y="65520"></use><use xlink:href="#SvgjsSymbol1799" x="0" y="66240"></use><use xlink:href="#SvgjsSymbol1799" x="0" y="66960"></use><use xlink:href="#SvgjsSymbol1799" x="0" y="67680"></use><use xlink:href="#SvgjsSymbol1799" x="0" y="68400"></use><use xlink:href="#SvgjsSymbol1799" x="0" y="69120"></use><use xlink:href="#SvgjsSymbol1799" x="0" y="69840"></use><use xlink:href="#SvgjsSymbol1799" x="0" y="70560"></use><use xlink:href="#SvgjsSymbol1799" x="0" y="71280"></use><use xlink:href="#SvgjsSymbol1799" x="0" y="72000"></use><use xlink:href="#SvgjsSymbol1799" x="0" y="72720"></use><use xlink:href="#SvgjsSymbol1799" x="0" y="73440"></use><use xlink:href="#SvgjsSymbol1799" x="0" y="74160"></use><use xlink:href="#SvgjsSymbol1799" x="0" y="74880"></use><use xlink:href="#SvgjsSymbol1799" x="0" y="75600"></use><use xlink:href="#SvgjsSymbol1799" x="0" y="76320"></use><use xlink:href="#SvgjsSymbol1799" x="0" y="77040"></use><use xlink:href="#SvgjsSymbol1799" x="0" y="77760"></use><use xlink:href="#SvgjsSymbol1799" x="720" y="0"></use><use xlink:href="#SvgjsSymbol1799" x="720" y="720"></use><use xlink:href="#SvgjsSymbol1799" x="720" y="1440"></use><use xlink:href="#SvgjsSymbol1799" x="720" y="2160"></use><use xlink:href="#SvgjsSymbol1799" x="720" y="2880"></use><use xlink:href="#SvgjsSymbol1799" x="720" y="3600"></use><use xlink:href="#SvgjsSymbol1799" x="720" y="4320"></use><use xlink:href="#SvgjsSymbol1799" x="720" y="5040"></use><use xlink:href="#SvgjsSymbol1799" x="720" y="5760"></use><use xlink:href="#SvgjsSymbol1799" x="720" y="6480"></use><use xlink:href="#SvgjsSymbol1799" x="720" y="7200"></use><use xlink:href="#SvgjsSymbol1799" x="720" y="7920"></use><use xlink:href="#SvgjsSymbol1799" x="720" y="8640"></use><use xlink:href="#SvgjsSymbol1799" x="720" y="9360"></use><use xlink:href="#SvgjsSymbol1799" x="720" y="10080"></use><use xlink:href="#SvgjsSymbol1799" x="720" y="10800"></use><use xlink:href="#SvgjsSymbol1799" x="720" y="11520"></use><use xlink:href="#SvgjsSymbol1799" x="720" y="12240"></use><use xlink:href="#SvgjsSymbol1799" x="720" y="12960"></use><use xlink:href="#SvgjsSymbol1799" x="720" y="13680"></use><use xlink:href="#SvgjsSymbol1799" x="720" y="14400"></use><use xlink:href="#SvgjsSymbol1799" x="720" y="15120"></use><use xlink:href="#SvgjsSymbol1799" x="720" y="15840"></use><use xlink:href="#SvgjsSymbol1799" x="720" y="16560"></use><use xlink:href="#SvgjsSymbol1799" x="720" y="17280"></use><use xlink:href="#SvgjsSymbol1799" x="720" y="18000"></use><use xlink:href="#SvgjsSymbol1799" x="720" y="18720"></use><use xlink:href="#SvgjsSymbol1799" x="720" y="19440"></use><use xlink:href="#SvgjsSymbol1799" x="720" y="20160"></use><use xlink:href="#SvgjsSymbol1799" x="720" y="20880"></use><use xlink:href="#SvgjsSymbol1799" x="720" y="21600"></use><use xlink:href="#SvgjsSymbol1799" x="720" y="22320"></use><use xlink:href="#SvgjsSymbol1799" x="720" y="23040"></use><use xlink:href="#SvgjsSymbol1799" x="720" y="23760"></use><use xlink:href="#SvgjsSymbol1799" x="720" y="24480"></use><use xlink:href="#SvgjsSymbol1799" x="720" y="25200"></use><use xlink:href="#SvgjsSymbol1799" x="720" y="25920"></use><use xlink:href="#SvgjsSymbol1799" x="720" y="26640"></use><use xlink:href="#SvgjsSymbol1799" x="720" y="27360"></use><use xlink:href="#SvgjsSymbol1799" x="720" y="28080"></use><use xlink:href="#SvgjsSymbol1799" x="720" y="28800"></use><use xlink:href="#SvgjsSymbol1799" x="720" y="29520"></use><use xlink:href="#SvgjsSymbol1799" x="720" y="30240"></use><use xlink:href="#SvgjsSymbol1799" x="720" y="30960"></use><use xlink:href="#SvgjsSymbol1799" x="720" y="31680"></use><use xlink:href="#SvgjsSymbol1799" x="720" y="32400"></use><use xlink:href="#SvgjsSymbol1799" x="720" y="33120"></use><use xlink:href="#SvgjsSymbol1799" x="720" y="33840"></use><use xlink:href="#SvgjsSymbol1799" x="720" y="34560"></use><use xlink:href="#SvgjsSymbol1799" x="720" y="35280"></use><use xlink:href="#SvgjsSymbol1799" x="720" y="36000"></use><use xlink:href="#SvgjsSymbol1799" x="720" y="36720"></use><use xlink:href="#SvgjsSymbol1799" x="720" y="37440"></use><use xlink:href="#SvgjsSymbol1799" x="720" y="38160"></use><use xlink:href="#SvgjsSymbol1799" x="720" y="38880"></use><use xlink:href="#SvgjsSymbol1799" x="720" y="39600"></use><use xlink:href="#SvgjsSymbol1799" x="720" y="40320"></use><use xlink:href="#SvgjsSymbol1799" x="720" y="41040"></use><use xlink:href="#SvgjsSymbol1799" x="720" y="41760"></use><use xlink:href="#SvgjsSymbol1799" x="720" y="42480"></use><use xlink:href="#SvgjsSymbol1799" x="720" y="43200"></use><use xlink:href="#SvgjsSymbol1799" x="720" y="43920"></use><use xlink:href="#SvgjsSymbol1799" x="720" y="44640"></use><use xlink:href="#SvgjsSymbol1799" x="720" y="45360"></use><use xlink:href="#SvgjsSymbol1799" x="720" y="46080"></use><use xlink:href="#SvgjsSymbol1799" x="720" y="46800"></use><use xlink:href="#SvgjsSymbol1799" x="720" y="47520"></use><use xlink:href="#SvgjsSymbol1799" x="720" y="48240"></use><use xlink:href="#SvgjsSymbol1799" x="720" y="48960"></use><use xlink:href="#SvgjsSymbol1799" x="720" y="49680"></use><use xlink:href="#SvgjsSymbol1799" x="720" y="50400"></use><use xlink:href="#SvgjsSymbol1799" x="720" y="51120"></use><use xlink:href="#SvgjsSymbol1799" x="720" y="51840"></use><use xlink:href="#SvgjsSymbol1799" x="720" y="52560"></use><use xlink:href="#SvgjsSymbol1799" x="720" y="53280"></use><use xlink:href="#SvgjsSymbol1799" x="720" y="54000"></use><use xlink:href="#SvgjsSymbol1799" x="720" y="54720"></use><use xlink:href="#SvgjsSymbol1799" x="720" y="55440"></use><use xlink:href="#SvgjsSymbol1799" x="720" y="56160"></use><use xlink:href="#SvgjsSymbol1799" x="720" y="56880"></use><use xlink:href="#SvgjsSymbol1799" x="720" y="57600"></use><use xlink:href="#SvgjsSymbol1799" x="720" y="58320"></use><use xlink:href="#SvgjsSymbol1799" x="720" y="59040"></use><use xlink:href="#SvgjsSymbol1799" x="720" y="59760"></use><use xlink:href="#SvgjsSymbol1799" x="720" y="60480"></use><use xlink:href="#SvgjsSymbol1799" x="720" y="61200"></use><use xlink:href="#SvgjsSymbol1799" x="720" y="61920"></use><use xlink:href="#SvgjsSymbol1799" x="720" y="62640"></use><use xlink:href="#SvgjsSymbol1799" x="720" y="63360"></use><use xlink:href="#SvgjsSymbol1799" x="720" y="64080"></use><use xlink:href="#SvgjsSymbol1799" x="720" y="64800"></use><use xlink:href="#SvgjsSymbol1799" x="720" y="65520"></use><use xlink:href="#SvgjsSymbol1799" x="720" y="66240"></use><use xlink:href="#SvgjsSymbol1799" x="720" y="66960"></use><use xlink:href="#SvgjsSymbol1799" x="720" y="67680"></use><use xlink:href="#SvgjsSymbol1799" x="720" y="68400"></use><use xlink:href="#SvgjsSymbol1799" x="720" y="69120"></use><use xlink:href="#SvgjsSymbol1799" x="720" y="69840"></use><use xlink:href="#SvgjsSymbol1799" x="720" y="70560"></use><use xlink:href="#SvgjsSymbol1799" x="720" y="71280"></use><use xlink:href="#SvgjsSymbol1799" x="720" y="72000"></use><use xlink:href="#SvgjsSymbol1799" x="720" y="72720"></use><use xlink:href="#SvgjsSymbol1799" x="720" y="73440"></use><use xlink:href="#SvgjsSymbol1799" x="720" y="74160"></use><use xlink:href="#SvgjsSymbol1799" x="720" y="74880"></use><use xlink:href="#SvgjsSymbol1799" x="720" y="75600"></use><use xlink:href="#SvgjsSymbol1799" x="720" y="76320"></use><use xlink:href="#SvgjsSymbol1799" x="720" y="77040"></use><use xlink:href="#SvgjsSymbol1799" x="720" y="77760"></use></g><defs><mask id="SvgjsMask1791"><rect width="1440" height="78235.5" fill="#ffffff"></rect></mask><linearGradient x1="-1333.26%" y1="24.54%" x2="1433.26%" y2="75.46%" gradientUnits="userSpaceOnUse" id="SvgjsLinearGradient1792"><stop stop-color="rgba(67, 26, 80, 1)" offset="0"></stop><stop stop-color="rgba(26, 3, 33, 1)" offset="1"></stop></linearGradient><path d="M-1 0 a1 1 0 1 0 2 0 a1 1 0 1 0 -2 0z" id="SvgjsPath1794"></path><path d="M-3 0 a3 3 0 1 0 6 0 a3 3 0 1 0 -6 0z" id="SvgjsPath1796"></path><path d="M-5 0 a5 5 0 1 0 10 0 a5 5 0 1 0 -10 0z" id="SvgjsPath1795"></path><path d="M2 -2 L-2 2z" id="SvgjsPath1793"></path><path d="M6 -6 L-6 6z" id="SvgjsPath1798"></path><path d="M30 -30 L-30 30z" id="SvgjsPath1797"></path></defs><symbol id="SvgjsSymbol1799"><use xlink:href="#SvgjsPath1793" x="30" y="30" stroke="rgba(90, 49, 102, 1)"></use><use xlink:href="#SvgjsPath1794" x="30" y="90" stroke="rgba(90, 49, 102, 1)"></use><use xlink:href="#SvgjsPath1795" x="30" y="150" stroke="rgba(194, 7, 251, 1)"></use><use xlink:href="#SvgjsPath1796" x="30" y="210" stroke="rgba(90, 49, 102, 1)"></use><use xlink:href="#SvgjsPath1797" x="30" y="270" stroke="rgba(90, 49, 102, 1)" stroke-width="3"></use><use xlink:href="#SvgjsPath1795" x="30" y="330" stroke="rgba(194, 7, 251, 1)"></use><use xlink:href="#SvgjsPath1795" x="30" y="390" stroke="rgba(194, 7, 251, 1)"></use><use xlink:href="#SvgjsPath1795" x="30" y="450" stroke="rgba(90, 49, 102, 1)"></use><use xlink:href="#SvgjsPath1796" x="30" y="510" stroke="rgba(194, 7, 251, 1)"></use><use xlink:href="#SvgjsPath1795" x="30" y="570" stroke="rgba(194, 7, 251, 1)"></use><use xlink:href="#SvgjsPath1798" x="30" y="630" stroke="rgba(194, 7, 251, 1)"></use><use xlink:href="#SvgjsPath1798" x="30" y="690" stroke="rgba(90, 49, 102, 1)"></use><use xlink:href="#SvgjsPath1798" x="90" y="30" stroke="rgba(194, 7, 251, 1)"></use><use xlink:href="#SvgjsPath1795" x="90" y="90" stroke="rgba(90, 49, 102, 1)"></use><use xlink:href="#SvgjsPath1796" x="90" y="150" stroke="rgba(194, 7, 251, 1)"></use><use xlink:href="#SvgjsPath1794" x="90" y="210" stroke="rgba(194, 7, 251, 1)"></use><use xlink:href="#SvgjsPath1797" x="90" y="270" stroke="rgba(194, 7, 251, 1)" stroke-width="3"></use><use xlink:href="#SvgjsPath1796" x="90" y="330" stroke="rgba(90, 49, 102, 1)"></use><use xlink:href="#SvgjsPath1795" x="90" y="390" stroke="rgba(194, 7, 251, 1)"></use><use xlink:href="#SvgjsPath1793" x="90" y="450" stroke="rgba(194, 7, 251, 1)"></use><use xlink:href="#SvgjsPath1798" x="90" y="510" stroke="rgba(90, 49, 102, 1)"></use><use xlink:href="#SvgjsPath1798" x="90" y="570" stroke="rgba(90, 49, 102, 1)"></use><use xlink:href="#SvgjsPath1795" x="90" y="630" stroke="rgba(90, 49, 102, 1)"></use><use xlink:href="#SvgjsPath1793" x="90" y="690" stroke="rgba(90, 49, 102, 1)"></use><use xlink:href="#SvgjsPath1795" x="150" y="30" stroke="rgba(194, 7, 251, 1)"></use><use xlink:href="#SvgjsPath1795" x="150" y="90" stroke="rgba(194, 7, 251, 1)"></use><use xlink:href="#SvgjsPath1793" x="150" y="150" stroke="rgba(194, 7, 251, 1)"></use><use xlink:href="#SvgjsPath1794" x="150" y="210" stroke="rgba(90, 49, 102, 1)"></use><use xlink:href="#SvgjsPath1797" x="150" y="270" stroke="rgba(90, 49, 102, 1)" stroke-width="3"></use><use xlink:href="#SvgjsPath1798" x="150" y="330" stroke="rgba(194, 7, 251, 1)"></use><use xlink:href="#SvgjsPath1796" x="150" y="390" stroke="rgba(90, 49, 102, 1)"></use><use xlink:href="#SvgjsPath1798" x="150" y="450" stroke="rgba(194, 7, 251, 1)"></use><use xlink:href="#SvgjsPath1798" x="150" y="510" stroke="rgba(90, 49, 102, 1)"></use><use xlink:href="#SvgjsPath1798" x="150" y="570" stroke="rgba(90, 49, 102, 1)"></use><use xlink:href="#SvgjsPath1798" x="150" y="630" stroke="rgba(194, 7, 251, 1)"></use><use xlink:href="#SvgjsPath1798" x="150" y="690" stroke="rgba(194, 7, 251, 1)"></use><use xlink:href="#SvgjsPath1795" x="210" y="30" stroke="rgba(90, 49, 102, 1)"></use><use xlink:href="#SvgjsPath1798" x="210" y="90" stroke="rgba(194, 7, 251, 1)"></use><use xlink:href="#SvgjsPath1793" x="210" y="150" stroke="rgba(194, 7, 251, 1)"></use><use xlink:href="#SvgjsPath1798" x="210" y="210" stroke="rgba(194, 7, 251, 1)"></use><use xlink:href="#SvgjsPath1798" x="210" y="270" stroke="rgba(194, 7, 251, 1)"></use><use xlink:href="#SvgjsPath1795" x="210" y="330" stroke="rgba(90, 49, 102, 1)"></use><use xlink:href="#SvgjsPath1795" x="210" y="390" stroke="rgba(194, 7, 251, 1)"></use><use xlink:href="#SvgjsPath1798" x="210" y="450" stroke="rgba(90, 49, 102, 1)"></use><use xlink:href="#SvgjsPath1795" x="210" y="510" stroke="rgba(90, 49, 102, 1)"></use><use xlink:href="#SvgjsPath1795" x="210" y="570" stroke="rgba(194, 7, 251, 1)"></use><use xlink:href="#SvgjsPath1796" x="210" y="630" stroke="rgba(194, 7, 251, 1)"></use><use xlink:href="#SvgjsPath1795" x="210" y="690" stroke="rgba(90, 49, 102, 1)"></use><use xlink:href="#SvgjsPath1795" x="270" y="30" stroke="rgba(194, 7, 251, 1)"></use><use xlink:href="#SvgjsPath1798" x="270" y="90" stroke="rgba(194, 7, 251, 1)"></use><use xlink:href="#SvgjsPath1797" x="270" y="150" stroke="rgba(194, 7, 251, 1)" stroke-width="3"></use><use xlink:href="#SvgjsPath1795" x="270" y="210" stroke="rgba(90, 49, 102, 1)"></use><use xlink:href="#SvgjsPath1794" x="270" y="270" stroke="rgba(194, 7, 251, 1)"></use><use xlink:href="#SvgjsPath1795" x="270" y="330" stroke="rgba(194, 7, 251, 1)"></use><use xlink:href="#SvgjsPath1795" x="270" y="390" stroke="rgba(194, 7, 251, 1)"></use><use xlink:href="#SvgjsPath1798" x="270" y="450" stroke="rgba(90, 49, 102, 1)"></use><use xlink:href="#SvgjsPath1798" x="270" y="510" stroke="rgba(194, 7, 251, 1)"></use><use xlink:href="#SvgjsPath1795" x="270" y="570" stroke="rgba(90, 49, 102, 1)"></use><use xlink:href="#SvgjsPath1795" x="270" y="630" stroke="rgba(194, 7, 251, 1)"></use><use xlink:href="#SvgjsPath1794" x="270" y="690" stroke="rgba(90, 49, 102, 1)"></use><use xlink:href="#SvgjsPath1798" x="330" y="30" stroke="rgba(194, 7, 251, 1)"></use><use xlink:href="#SvgjsPath1796" x="330" y="90" stroke="rgba(194, 7, 251, 1)"></use><use xlink:href="#SvgjsPath1794" x="330" y="150" stroke="rgba(194, 7, 251, 1)"></use><use xlink:href="#SvgjsPath1793" x="330" y="210" stroke="rgba(90, 49, 102, 1)"></use><use xlink:href="#SvgjsPath1794" x="330" y="270" stroke="rgba(90, 49, 102, 1)"></use><use xlink:href="#SvgjsPath1793" x="330" y="330" stroke="rgba(90, 49, 102, 1)"></use><use xlink:href="#SvgjsPath1793" x="330" y="390" stroke="rgba(90, 49, 102, 1)"></use><use xlink:href="#SvgjsPath1795" x="330" y="450" stroke="rgba(90, 49, 102, 1)"></use><use xlink:href="#SvgjsPath1798" x="330" y="510" stroke="rgba(90, 49, 102, 1)"></use><use xlink:href="#SvgjsPath1794" x="330" y="570" stroke="rgba(194, 7, 251, 1)"></use><use xlink:href="#SvgjsPath1798" x="330" y="630" stroke="rgba(90, 49, 102, 1)"></use><use xlink:href="#SvgjsPath1798" x="330" y="690" stroke="rgba(194, 7, 251, 1)"></use><use xlink:href="#SvgjsPath1794" x="390" y="30" stroke="rgba(90, 49, 102, 1)"></use><use xlink:href="#SvgjsPath1796" x="390" y="90" stroke="rgba(194, 7, 251, 1)"></use><use xlink:href="#SvgjsPath1793" x="390" y="150" stroke="rgba(194, 7, 251, 1)"></use><use xlink:href="#SvgjsPath1795" x="390" y="210" stroke="rgba(194, 7, 251, 1)"></use><use xlink:href="#SvgjsPath1798" x="390" y="270" stroke="rgba(194, 7, 251, 1)"></use><use xlink:href="#SvgjsPath1798" x="390" y="330" stroke="rgba(90, 49, 102, 1)"></use><use xlink:href="#SvgjsPath1794" x="390" y="390" stroke="rgba(90, 49, 102, 1)"></use><use xlink:href="#SvgjsPath1794" x="390" y="450" stroke="rgba(90, 49, 102, 1)"></use><use xlink:href="#SvgjsPath1798" x="390" y="510" stroke="rgba(194, 7, 251, 1)"></use><use xlink:href="#SvgjsPath1796" x="390" y="570" stroke="rgba(90, 49, 102, 1)"></use><use xlink:href="#SvgjsPath1795" x="390" y="630" stroke="rgba(90, 49, 102, 1)"></use><use xlink:href="#SvgjsPath1795" x="390" y="690" stroke="rgba(194, 7, 251, 1)"></use><use xlink:href="#SvgjsPath1793" x="450" y="30" stroke="rgba(194, 7, 251, 1)"></use><use xlink:href="#SvgjsPath1795" x="450" y="90" stroke="rgba(90, 49, 102, 1)"></use><use xlink:href="#SvgjsPath1798" x="450" y="150" stroke="rgba(194, 7, 251, 1)"></use><use xlink:href="#SvgjsPath1793" x="450" y="210" stroke="rgba(90, 49, 102, 1)"></use><use xlink:href="#SvgjsPath1797" x="450" y="270" stroke="rgba(194, 7, 251, 1)" stroke-width="3"></use><use xlink:href="#SvgjsPath1793" x="450" y="330" stroke="rgba(194, 7, 251, 1)"></use><use xlink:href="#SvgjsPath1798" x="450" y="390" stroke="rgba(90, 49, 102, 1)"></use><use xlink:href="#SvgjsPath1796" x="450" y="450" stroke="rgba(90, 49, 102, 1)"></use><use xlink:href="#SvgjsPath1793" x="450" y="510" stroke="rgba(90, 49, 102, 1)"></use><use xlink:href="#SvgjsPath1798" x="450" y="570" stroke="rgba(194, 7, 251, 1)"></use><use xlink:href="#SvgjsPath1795" x="450" y="630" stroke="rgba(194, 7, 251, 1)"></use><use xlink:href="#SvgjsPath1798" x="450" y="690" stroke="rgba(194, 7, 251, 1)"></use><use xlink:href="#SvgjsPath1795" x="510" y="30" stroke="rgba(194, 7, 251, 1)"></use><use xlink:href="#SvgjsPath1793" x="510" y="90" stroke="rgba(194, 7, 251, 1)"></use><use xlink:href="#SvgjsPath1795" x="510" y="150" stroke="rgba(194, 7, 251, 1)"></use><use xlink:href="#SvgjsPath1795" x="510" y="210" stroke="rgba(194, 7, 251, 1)"></use><use xlink:href="#SvgjsPath1795" x="510" y="270" stroke="rgba(194, 7, 251, 1)"></use><use xlink:href="#SvgjsPath1795" x="510" y="330" stroke="rgba(90, 49, 102, 1)"></use><use xlink:href="#SvgjsPath1795" x="510" y="390" stroke="rgba(194, 7, 251, 1)"></use><use xlink:href="#SvgjsPath1793" x="510" y="450" stroke="rgba(90, 49, 102, 1)"></use><use xlink:href="#SvgjsPath1796" x="510" y="510" stroke="rgba(90, 49, 102, 1)"></use><use xlink:href="#SvgjsPath1796" x="510" y="570" stroke="rgba(90, 49, 102, 1)"></use><use xlink:href="#SvgjsPath1794" x="510" y="630" stroke="rgba(90, 49, 102, 1)"></use><use xlink:href="#SvgjsPath1796" x="510" y="690" stroke="rgba(90, 49, 102, 1)"></use><use xlink:href="#SvgjsPath1795" x="570" y="30" stroke="rgba(194, 7, 251, 1)"></use><use xlink:href="#SvgjsPath1795" x="570" y="90" stroke="rgba(194, 7, 251, 1)"></use><use xlink:href="#SvgjsPath1793" x="570" y="150" stroke="rgba(194, 7, 251, 1)"></use><use xlink:href="#SvgjsPath1793" x="570" y="210" stroke="rgba(194, 7, 251, 1)"></use><use xlink:href="#SvgjsPath1796" x="570" y="270" stroke="rgba(90, 49, 102, 1)"></use><use xlink:href="#SvgjsPath1798" x="570" y="330" stroke="rgba(194, 7, 251, 1)"></use><use xlink:href="#SvgjsPath1795" x="570" y="390" stroke="rgba(194, 7, 251, 1)"></use><use xlink:href="#SvgjsPath1796" x="570" y="450" stroke="rgba(194, 7, 251, 1)"></use><use xlink:href="#SvgjsPath1796" x="570" y="510" stroke="rgba(194, 7, 251, 1)"></use><use xlink:href="#SvgjsPath1798" x="570" y="570" stroke="rgba(90, 49, 102, 1)"></use><use xlink:href="#SvgjsPath1798" x="570" y="630" stroke="rgba(90, 49, 102, 1)"></use><use xlink:href="#SvgjsPath1798" x="570" y="690" stroke="rgba(90, 49, 102, 1)"></use><use xlink:href="#SvgjsPath1793" x="630" y="30" stroke="rgba(194, 7, 251, 1)"></use><use xlink:href="#SvgjsPath1793" x="630" y="90" stroke="rgba(194, 7, 251, 1)"></use><use xlink:href="#SvgjsPath1795" x="630" y="150" stroke="rgba(194, 7, 251, 1)"></use><use xlink:href="#SvgjsPath1793" x="630" y="210" stroke="rgba(90, 49, 102, 1)"></use><use xlink:href="#SvgjsPath1793" x="630" y="270" stroke="rgba(90, 49, 102, 1)"></use><use xlink:href="#SvgjsPath1795" x="630" y="330" stroke="rgba(90, 49, 102, 1)"></use><use xlink:href="#SvgjsPath1795" x="630" y="390" stroke="rgba(194, 7, 251, 1)"></use><use xlink:href="#SvgjsPath1794" x="630" y="450" stroke="rgba(90, 49, 102, 1)"></use><use xlink:href="#SvgjsPath1796" x="630" y="510" stroke="rgba(194, 7, 251, 1)"></use><use xlink:href="#SvgjsPath1795" x="630" y="570" stroke="rgba(194, 7, 251, 1)"></use><use xlink:href="#SvgjsPath1798" x="630" y="630" stroke="rgba(90, 49, 102, 1)"></use><use xlink:href="#SvgjsPath1796" x="630" y="690" stroke="rgba(90, 49, 102, 1)"></use><use xlink:href="#SvgjsPath1795" x="690" y="30" stroke="rgba(194, 7, 251, 1)"></use><use xlink:href="#SvgjsPath1798" x="690" y="90" stroke="rgba(90, 49, 102, 1)"></use><use xlink:href="#SvgjsPath1793" x="690" y="150" stroke="rgba(194, 7, 251, 1)"></use><use xlink:href="#SvgjsPath1798" x="690" y="210" stroke="rgba(90, 49, 102, 1)"></use><use xlink:href="#SvgjsPath1798" x="690" y="270" stroke="rgba(194, 7, 251, 1)"></use><use xlink:href="#SvgjsPath1798" x="690" y="330" stroke="rgba(194, 7, 251, 1)"></use><use xlink:href="#SvgjsPath1793" x="690" y="390" stroke="rgba(194, 7, 251, 1)"></use><use xlink:href="#SvgjsPath1798" x="690" y="450" stroke="rgba(90, 49, 102, 1)"></use><use xlink:href="#SvgjsPath1798" x="690" y="510" stroke="rgba(194, 7, 251, 1)"></use><use xlink:href="#SvgjsPath1798" x="690" y="570" stroke="rgba(90, 49, 102, 1)"></use><use xlink:href="#SvgjsPath1795" x="690" y="630" stroke="rgba(194, 7, 251, 1)"></use><use xlink:href="#SvgjsPath1798" x="690" y="690" stroke="rgba(90, 49, 102, 1)"></use></symbol></svg>